<svg width="256" height="256" viewBox="0 0 256 256" xmlns="http://www.w3.org/2000/svg">
  <defs>
    <linearGradient id="tunnels-primary" x1="32" y1="32" x2="224" y2="224" gradientUnits="userSpaceOnUse">
      <stop offset="0" stop-color="#1d4ed8"/>
      <stop offset="1" stop-color="#312e81"/>
    </linearGradient>
    <linearGradient id="tunnels-accent" x1="96" y1="84" x2="176" y2="196" gradientUnits="userSpaceOnUse">
      <stop offset="0" stop-color="#60a5fa"/>
      <stop offset="1" stop-color="#2563eb"/>
    </linearGradient>
  </defs>
  <rect width="256" height="256" rx="60" fill="#ffffff"/>
  <circle cx="128" cy="128" r="108" fill="url(#tunnels-primary)"/>
  <rect x="64" y="86" width="128" height="36" rx="18" fill="#e2e8f0" fill-opacity="0.75"/>
  <rect x="112" y="120" width="32" height="72" rx="16" fill="#f8fafc"/>
  <path
    d="M96 164c-22.091 0-40 17.909-40 40v16h144v-16c0-22.091-17.909-40-40-40H96z"
    fill="url(#tunnels-accent)"
  />
  <path
    d="M96 164c-17.673 0-32 14.327-32 32v24h128v-24c0-17.673-14.327-32-32-32H96z"
    fill="#0f172a"
    fill-opacity="0.18"
  />
</svg>
